<svg width="50" height="50" viewBox="0 0 50 50" fill="none" xmlns="http://www.w3.org/2000/svg">
<path d="M45.8333 10.4167C45.8333 13.8685 43.0352 16.6667 39.5833 16.6667C36.1315 16.6667 33.3333 13.8685 33.3333 10.4167C33.3333 6.96498 36.1315 4.16675 39.5833 4.16675C43.0352 4.16675 45.8333 6.96498 45.8333 10.4167Z" fill="white"/>
<path opacity="0.5" d="M31.739 5.28083C29.6252 4.55862 27.3583 4.16675 25 4.16675C13.4941 4.16675 4.16667 13.4941 4.16667 25.0001C4.16667 28.3328 4.94921 31.4826 6.34055 34.2761C6.7103 35.0184 6.83336 35.867 6.619 36.668L5.37815 41.3057C4.83948 43.3188 6.68128 45.1605 8.69448 44.622L13.332 43.3811C14.1332 43.1667 14.9817 43.2899 15.724 43.6595C18.5174 45.0509 21.6673 45.8334 25 45.8334C36.5058 45.8334 45.8333 36.5059 45.8333 25.0001C45.8333 22.6417 45.4415 20.3748 44.7192 18.261C43.2442 19.2289 41.4794 19.7917 39.5833 19.7917C34.4056 19.7917 30.2083 15.5944 30.2083 10.4167C30.2083 8.52064 30.7713 6.756 31.739 5.28083Z" fill="white"/>
</svg>
