<svg width="173" height="49" viewBox="0 0 173 49" fill="none" xmlns="http://www.w3.org/2000/svg">
<path d="M7.8798 17.536C7.1358 17.536 6.5118 17.284 6.0078 16.78C5.5038 16.276 5.2518 15.652 5.2518 14.908C5.2518 14.164 5.5038 13.54 6.0078 13.036C6.5118 12.532 7.1358 12.28 7.8798 12.28C8.5998 12.28 9.2118 12.532 9.7158 13.036C10.2198 13.54 10.4718 14.164 10.4718 14.908C10.4718 15.652 10.2198 16.276 9.7158 16.78C9.2118 17.284 8.5998 17.536 7.8798 17.536ZM9.8958 20.164V40H5.7918V20.164H9.8958ZM25.292 19.84C26.852 19.84 28.244 20.164 29.468 20.812C30.716 21.46 31.688 22.42 32.384 23.692C33.08 24.964 33.428 26.5 33.428 28.3V40H29.36V28.912C29.36 27.136 28.916 25.78 28.028 24.844C27.14 23.884 25.928 23.404 24.392 23.404C22.856 23.404 21.632 23.884 20.72 24.844C19.832 25.78 19.388 27.136 19.388 28.912V40H15.284V20.164H19.388V22.432C20.06 21.616 20.912 20.98 21.944 20.524C23 20.068 24.116 19.84 25.292 19.84ZM43.4509 23.512V34.492C43.4509 35.236 43.6189 35.776 43.9549 36.112C44.3149 36.424 44.9149 36.58 45.7549 36.58H48.2749V40H45.0349C43.1869 40 41.7709 39.568 40.7869 38.704C39.8029 37.84 39.3109 36.436 39.3109 34.492V23.512H36.9709V20.164H39.3109V15.232H43.4509V20.164H48.2749V23.512H43.4509ZM70.2374 29.596C70.2374 30.34 70.1894 31.012 70.0934 31.612H54.9374C55.0574 33.196 55.6454 34.468 56.7014 35.428C57.7574 36.388 59.0534 36.868 60.5894 36.868C62.7974 36.868 64.3574 35.944 65.2694 34.096H69.6974C69.0974 35.92 68.0054 37.42 66.4214 38.596C64.8614 39.748 62.9174 40.324 60.5894 40.324C58.6934 40.324 56.9894 39.904 55.4774 39.064C53.9894 38.2 52.8134 37 51.9494 35.464C51.1094 33.904 50.6894 32.104 50.6894 30.064C50.6894 28.024 51.0974 26.236 51.9134 24.7C52.7534 23.14 53.9174 21.94 55.4054 21.1C56.9174 20.26 58.6454 19.84 60.5894 19.84C62.4614 19.84 64.1294 20.248 65.5934 21.064C67.0574 21.88 68.1974 23.032 69.0134 24.52C69.8294 25.984 70.2374 27.676 70.2374 29.596ZM65.9534 28.3C65.9294 26.788 65.3894 25.576 64.3334 24.664C63.2774 23.752 61.9694 23.296 60.4094 23.296C58.9934 23.296 57.7814 23.752 56.7734 24.664C55.7654 25.552 55.1654 26.764 54.9734 28.3H65.9534ZM78.3802 23.044C78.9802 22.036 79.7722 21.256 80.7562 20.704C81.7642 20.128 82.9522 19.84 84.3202 19.84V24.088H83.2762C81.6682 24.088 80.4442 24.496 79.6042 25.312C78.7882 26.128 78.3802 27.544 78.3802 29.56V40H74.2762V20.164H78.3802V23.044ZM114.445 20.272L108.289 40H104.905L100.153 24.34L95.4006 40H92.0166L85.8246 20.272H89.1726L93.7086 36.832L98.6046 20.272H101.953L106.741 36.868L111.205 20.272H114.445ZM126.3 40.324C124.452 40.324 122.772 39.904 121.26 39.064C119.772 38.224 118.596 37.036 117.732 35.5C116.892 33.94 116.472 32.14 116.472 30.1C116.472 28.084 116.904 26.308 117.768 24.772C118.656 23.212 119.856 22.024 121.368 21.208C122.88 20.368 124.572 19.948 126.444 19.948C128.316 19.948 130.008 20.368 131.52 21.208C133.032 22.024 134.22 23.2 135.084 24.736C135.972 26.272 136.416 28.06 136.416 30.1C136.416 32.14 135.96 33.94 135.048 35.5C134.16 37.036 132.948 38.224 131.412 39.064C129.876 39.904 128.172 40.324 126.3 40.324ZM126.3 37.444C127.476 37.444 128.58 37.168 129.612 36.616C130.644 36.064 131.472 35.236 132.096 34.132C132.744 33.028 133.068 31.684 133.068 30.1C133.068 28.516 132.756 27.172 132.132 26.068C131.508 24.964 130.692 24.148 129.684 23.62C128.676 23.068 127.584 22.792 126.408 22.792C125.208 22.792 124.104 23.068 123.096 23.62C122.112 24.148 121.32 24.964 120.72 26.068C120.12 27.172 119.82 28.516 119.82 30.1C119.82 31.708 120.108 33.064 120.684 34.168C121.284 35.272 122.076 36.1 123.06 36.652C124.044 37.18 125.124 37.444 126.3 37.444ZM143.999 23.476C144.575 22.348 145.391 21.472 146.447 20.848C147.527 20.224 148.835 19.912 150.371 19.912V23.296H149.507C145.835 23.296 143.999 25.288 143.999 29.272V40H140.723V20.272H143.999V23.476ZM165.169 40L157.429 31.288V40H154.153V13.36H157.429V29.02L165.025 20.272H169.597L160.309 30.1L169.633 40H165.169Z" fill="white"/>
</svg>
