<svg width="54" height="43" viewBox="0 0 54 43" fill="none" xmlns="http://www.w3.org/2000/svg">
<path opacity="0.5" d="M27 18.3286C34.4 18.3286 41.0755 19.721 45.8818 21.9517C50.7295 24.2015 53.5 27.2098 53.5 30.3589C53.5 33.5079 50.7295 36.5162 45.8818 38.7661C41.0755 40.9967 34.4 42.3892 27 42.3892C19.6 42.3892 12.9245 40.9967 8.11816 38.7661C3.27047 36.5162 0.500046 33.5079 0.5 30.3589C0.5 27.2098 3.27046 24.2015 8.11816 21.9517C10.5258 20.8343 13.4027 19.9265 16.6045 19.2993C16.9247 19.2586 17.2392 19.2002 17.5479 19.1255C20.4819 18.6112 23.6674 18.3286 27 18.3286ZM15.5 1.62061C19.8981 1.62061 23.5 5.3501 23.5 9.99658C23.5 13.9789 20.8534 17.2845 17.3281 18.1489C17.0325 18.201 16.739 18.2543 16.4482 18.311C16.137 18.3496 15.8208 18.3726 15.5 18.3726C11.1019 18.3726 7.50005 14.643 7.5 9.99658C7.5 5.3501 11.1019 1.62061 15.5 1.62061ZM39.5 1.62061C43.8981 1.62061 47.5 5.3501 47.5 9.99658C47.5 14.643 43.8981 18.3726 39.5 18.3726C35.1019 18.3726 31.5 14.643 31.5 9.99658C31.5 5.3501 35.1019 1.62061 39.5 1.62061Z" fill="white" stroke="#9D9D9D"/>
<path d="M35 18.2739C35 23.1759 31.1944 27.1498 26.5 27.1498C21.8056 27.1498 18 23.1759 18 18.2739C18 13.3719 21.8056 9.39799 26.5 9.39799C31.1944 9.39799 35 13.3719 35 18.2739Z" fill="white"/>
<path d="M12.7322 0.282609C7.40736 1.64477 3.7437 7.26071 4.63117 12.7333C4.92699 14.5734 5.951 16.9631 6.92949 18.1341L7.63492 18.9944L6.38336 19.9025C2.92449 22.4118 0.580658 26.7134 0.0345217 31.5407C-0.238546 34.0977 1.14955 35.4121 2.74245 34.0977C3.15205 33.7632 3.33409 33.3808 3.33409 32.8551C3.33409 31.4451 4.01677 28.7447 4.74495 27.1913C5.58691 25.3512 7.68043 23.0809 9.45537 22.0772L10.6842 21.3842L12.2088 21.7905C13.0508 22.0055 14.4844 22.1728 15.3718 22.1728H16.9875L17.4199 23.0809C17.6702 23.6067 18.2391 24.5148 18.6714 25.1122L19.4679 26.2115L17.966 27.3586C14.3934 30.1068 12.004 34.9102 11.9813 39.3074C11.9813 41.0519 12.4364 41.7689 13.5514 41.7689C14.7574 41.7689 15.1898 41.1236 15.3946 39.0206C15.5994 36.9893 16.1228 35.2448 17.0558 33.5959C17.8522 32.1859 20.0823 30.0112 21.5159 29.2226C22.7447 28.5774 22.7447 28.5774 24.0418 28.9597C25.6802 29.4377 28.3198 29.4377 29.9582 28.9597C31.2553 28.5774 31.2553 28.5774 32.4614 29.2226C34.7824 30.4653 37.2173 33.4286 38.0365 36.0095C38.2185 36.6548 38.4916 38.0169 38.5826 39.0445C38.7419 40.5262 38.9012 41.0041 39.2881 41.3387C39.9707 41.9122 40.9947 41.8883 41.5864 41.267C42.0415 40.7891 42.0643 40.574 41.9505 38.6861C41.8139 36.368 41.1085 33.9782 39.857 31.7797C39.015 30.2741 36.967 27.9799 35.4879 26.9284L34.5321 26.2354L35.4196 24.9688C35.9202 24.2997 36.4664 23.3677 36.6029 22.9375L36.876 22.1728H38.5599C39.4929 22.1728 40.9492 22.0055 41.7912 21.7905L43.3158 21.3842L44.5446 22.0772C46.2741 23.057 48.4131 25.3751 49.2778 27.2152C49.9832 28.7447 50.6659 31.4451 50.6659 32.8551C50.6659 33.3808 50.8479 33.7632 51.2575 34.0977C52.8504 35.4121 54.2385 34.0977 53.9655 31.5407C53.4193 26.7134 51.0755 22.4118 47.6166 19.9025L46.3651 18.9944L47.0705 18.1341C48.049 16.9631 49.073 14.5734 49.3688 12.7333C50.5294 5.63567 44.135 -1.05566 37.3311 0.139223C34.0543 0.712766 30.8457 3.15032 29.4804 6.08973L28.9342 7.26071H25.0658L24.5196 6.08973C22.5171 1.74036 17.2606 -0.864477 12.7322 0.282609ZM18.0115 4.22571C19.3086 4.82315 20.6739 6.16142 21.3338 7.47579C21.88 8.57508 21.88 8.57508 21.4249 8.83795C20.4009 9.43539 18.3756 11.7535 17.7157 13.0439C16.9875 14.4778 16.6689 15.5771 16.4186 17.4889L16.2593 18.6599L14.6437 18.5404C11.8902 18.3492 9.61466 16.7003 8.52239 14.1193C6.7702 9.93724 9.1823 4.84705 13.4376 3.79556C14.7119 3.46099 16.8282 3.67607 18.0115 4.22571ZM41.905 4.3452C43.4296 5.06213 44.6584 6.3765 45.4093 8.04933C46.183 9.79386 46.2285 12.3987 45.5004 14.0715C44.3626 16.7242 42.1325 18.3492 39.3563 18.5404L37.7407 18.6599L37.5814 17.4889C37.3311 15.5771 37.0125 14.4778 36.2843 13.0439C35.6244 11.7535 33.5764 9.43539 32.5751 8.86185C32.1428 8.59898 32.1428 8.55118 32.5069 7.76256C34.1453 4.15402 38.3323 2.62457 41.905 4.3452ZM29.6169 11.3472C31.2098 11.8968 33.1668 13.9759 33.7129 15.6966C34.8962 19.4485 33.4171 23.296 30.1403 25.0405C28.957 25.6619 28.5019 25.7575 27 25.7575C25.4981 25.7575 25.043 25.6619 23.8597 25.0405C19.6272 22.7942 18.5349 17.0109 21.6752 13.3546C23.7459 10.9409 26.4539 10.2479 29.6169 11.3472Z" fill="white"/>
<path d="M35 18.2739C35 23.1759 31.1944 27.1498 26.5 27.1498C21.8056 27.1498 18 23.1759 18 18.2739C18 13.3719 21.8056 9.39799 26.5 9.39799C31.1944 9.39799 35 13.3719 35 18.2739Z" stroke="#9D9D9D"/>
<path d="M12.7322 0.282609C7.40736 1.64477 3.7437 7.26071 4.63117 12.7333C4.92699 14.5734 5.951 16.9631 6.92949 18.1341L7.63492 18.9944L6.38336 19.9025C2.92449 22.4118 0.580658 26.7134 0.0345217 31.5407C-0.238546 34.0977 1.14955 35.4121 2.74245 34.0977C3.15205 33.7632 3.33409 33.3808 3.33409 32.8551C3.33409 31.4451 4.01677 28.7447 4.74495 27.1913C5.58691 25.3512 7.68043 23.0809 9.45537 22.0772L10.6842 21.3842L12.2088 21.7905C13.0508 22.0055 14.4844 22.1728 15.3718 22.1728H16.9875L17.4199 23.0809C17.6702 23.6067 18.2391 24.5148 18.6714 25.1122L19.4679 26.2115L17.966 27.3586C14.3934 30.1068 12.004 34.9102 11.9813 39.3074C11.9813 41.0519 12.4364 41.7689 13.5514 41.7689C14.7574 41.7689 15.1898 41.1236 15.3946 39.0206C15.5994 36.9893 16.1228 35.2448 17.0558 33.5959C17.8522 32.1859 20.0823 30.0112 21.5159 29.2226C22.7447 28.5774 22.7447 28.5774 24.0418 28.9597C25.6802 29.4377 28.3198 29.4377 29.9582 28.9597C31.2553 28.5774 31.2553 28.5774 32.4614 29.2226C34.7824 30.4653 37.2173 33.4286 38.0365 36.0095C38.2185 36.6548 38.4916 38.0169 38.5826 39.0445C38.7419 40.5262 38.9012 41.0041 39.2881 41.3387C39.9707 41.9122 40.9947 41.8883 41.5864 41.267C42.0415 40.7891 42.0643 40.574 41.9505 38.6861C41.8139 36.368 41.1085 33.9782 39.857 31.7797C39.015 30.2741 36.967 27.9799 35.4879 26.9284L34.5321 26.2354L35.4196 24.9688C35.9202 24.2997 36.4664 23.3677 36.6029 22.9375L36.876 22.1728H38.5599C39.4929 22.1728 40.9492 22.0055 41.7912 21.7905L43.3158 21.3842L44.5446 22.0772C46.2741 23.057 48.4131 25.3751 49.2778 27.2152C49.9832 28.7447 50.6659 31.4451 50.6659 32.8551C50.6659 33.3808 50.8479 33.7632 51.2575 34.0977C52.8504 35.4121 54.2385 34.0977 53.9655 31.5407C53.4193 26.7134 51.0755 22.4118 47.6166 19.9025L46.3651 18.9944L47.0705 18.1341C48.049 16.9631 49.073 14.5734 49.3688 12.7333C50.5294 5.63567 44.135 -1.05566 37.3311 0.139223C34.0543 0.712766 30.8457 3.15032 29.4804 6.08973L28.9342 7.26071H25.0658L24.5196 6.08973C22.5171 1.74036 17.2606 -0.864477 12.7322 0.282609ZM18.0115 4.22571C19.3086 4.82315 20.6739 6.16142 21.3338 7.47579C21.88 8.57508 21.88 8.57508 21.4249 8.83795C20.4009 9.43539 18.3756 11.7535 17.7157 13.0439C16.9875 14.4778 16.6689 15.5771 16.4186 17.4889L16.2593 18.6599L14.6437 18.5404C11.8902 18.3492 9.61466 16.7003 8.52239 14.1193C6.7702 9.93724 9.1823 4.84705 13.4376 3.79556C14.7119 3.46099 16.8282 3.67607 18.0115 4.22571ZM41.905 4.3452C43.4296 5.06213 44.6584 6.3765 45.4093 8.04933C46.183 9.79386 46.2285 12.3987 45.5004 14.0715C44.3626 16.7242 42.1325 18.3492 39.3563 18.5404L37.7407 18.6599L37.5814 17.4889C37.3311 15.5771 37.0125 14.4778 36.2843 13.0439C35.6244 11.7535 33.5764 9.43539 32.5751 8.86185C32.1428 8.59898 32.1428 8.55118 32.5069 7.76256C34.1453 4.15402 38.3323 2.62457 41.905 4.3452ZM29.6169 11.3472C31.2098 11.8968 33.1668 13.9759 33.7129 15.6966C34.8962 19.4485 33.4171 23.296 30.1403 25.0405C28.957 25.6619 28.5019 25.7575 27 25.7575C25.4981 25.7575 25.043 25.6619 23.8597 25.0405C19.6272 22.7942 18.5349 17.0109 21.6752 13.3546C23.7459 10.9409 26.4539 10.2479 29.6169 11.3472Z" stroke="#9D9D9D"/>
</svg>
