<svg width="46" height="46" viewBox="0 0 46 46" fill="none" xmlns="http://www.w3.org/2000/svg">
<path d="M37.375 8.625C35.8283 10.1056 33.9681 11.27 31.9067 12.0117C29.7562 12.3912 23.805 9.63125 20.8725 12.4487C20.3838 12.9375 19.78 13.4263 19.1475 13.915C17.7675 13.3113 15.64 12.3912 14.0875 11.5C12.535 10.6087 8.625 8.625 8.625 8.625L0 18.6875C0 18.6875 2.1275 21.5625 3.45 23.46C4.3125 24.725 5.37625 26.6513 6.06625 27.945L5.08875 29.095C4.922 29.4256 4.82137 29.8137 4.82137 30.2249C4.82137 30.9005 5.08588 31.5157 5.52 31.97C5.91675 32.2661 6.41413 32.4444 6.9575 32.4444C7.50087 32.4444 7.99825 32.2661 8.40075 31.9643C8.1305 32.2776 7.97237 32.6801 7.97237 33.12C7.97237 33.6749 8.22538 34.1694 8.62213 34.4971C9.03613 34.7415 9.5335 34.8853 10.0625 34.8853C10.5915 34.8853 11.0889 34.7415 11.5144 34.4914C11.1924 34.891 11.0055 35.3913 11.0055 35.9375C11.0055 36.4837 11.1924 36.984 11.5057 37.3807C11.7904 37.4814 12.121 37.5417 12.466 37.5417C13.0611 37.5417 13.6131 37.3606 14.0703 37.053C13.9466 37.3261 13.8834 37.6366 13.8834 37.9644C13.8834 38.6371 14.1594 39.2437 14.6079 39.675C14.9816 39.8446 15.4215 39.9424 15.8815 39.9424C16.5312 39.9424 17.1379 39.7469 17.6381 39.4105L19.1216 38.0679C20.4786 39.4191 22.3503 40.2557 24.4174 40.2557C24.4749 40.2557 24.5352 40.2558 24.5928 40.2529C26.013 40.1321 27.2032 39.2294 27.738 37.9788C28.1577 38.1397 28.635 38.249 29.141 38.249C29.8195 38.249 30.4491 38.0535 30.981 37.7171C32.6629 36.6045 32.2604 35.742 32.2604 35.742C32.6198 35.9001 33.0366 35.9921 33.4765 35.9921C34.3994 35.9921 35.2303 35.5839 35.7938 34.9399C36.2998 34.4195 36.6074 33.7123 36.6074 32.936C36.6074 32.3898 36.455 31.8809 36.1905 31.4467C36.2135 31.4611 36.2336 31.4611 36.2509 31.4611C37.4613 31.4611 38.5135 30.7941 39.0626 29.8109C39.2581 29.3193 39.3645 28.7673 39.3645 28.1922C39.3645 27.209 39.0482 26.2976 38.5135 25.5559L38.5221 25.5702C40.8796 25.1103 40.7934 23.9315 41.9434 22.2065C43.0474 20.7863 44.3929 19.6132 45.931 18.7335L37.375 8.625ZM37.2313 28.9225C35.9662 30.1875 34.9888 29.6412 32.8325 28.0025C30.6763 26.3637 26.3925 23.2875 26.3925 23.2875C26.5679 24.1644 26.9733 24.9262 27.5454 25.5329C28.4625 26.565 31.1938 28.9225 32.4875 30.13C33.2925 30.8775 35.3625 32.3725 34.155 33.5225C32.9475 34.6725 31.9987 33.5225 30.015 31.9125C28.0312 30.3025 23.6038 26.335 23.6038 26.335C23.6009 26.3867 23.598 26.4443 23.598 26.5046C23.598 27.2464 23.897 27.9163 24.38 28.405C24.8687 28.98 27.6 31.625 28.75 32.8325C29.9 34.04 30.9062 34.7588 29.9287 35.7075C28.9513 36.6562 26.9675 35.1613 25.875 34.04C24.1788 32.4013 20.815 29.3538 20.815 29.3538C20.8121 29.3997 20.8121 29.4515 20.8121 29.5061C20.8121 30.3226 21.0939 31.0701 21.5682 31.6624C22.3962 32.7491 24.0062 34.1579 24.9837 35.2504C25.9612 36.3429 26.5362 37.2629 24.9837 38.1254C23.4312 38.9879 21.1313 36.8604 20.125 35.8254V35.8196C20.125 35.5235 20.0158 35.2532 19.8375 35.0462C19.3804 34.6236 18.7622 34.362 18.0866 34.362C17.7876 34.362 17.5001 34.4137 17.2327 34.5057C17.6007 34.178 17.8193 33.718 17.8193 33.2063C17.8193 32.6945 17.6007 32.2345 17.25 31.9125C16.8878 31.6394 16.4335 31.4755 15.9419 31.4755C15.4503 31.4755 14.9931 31.6394 14.628 31.9154C14.9644 31.5905 15.1714 31.1449 15.1714 30.6475C15.1714 30.0351 14.858 29.4975 14.3836 29.1841C13.9437 28.9053 13.4176 28.7443 12.8541 28.7443C12.1526 28.7443 11.5086 28.9972 11.0084 29.4141C11.2815 29.0864 11.4425 28.6666 11.4425 28.2066C11.4425 27.646 11.1981 27.1429 10.8129 26.795C10.3011 26.3206 9.614 26.0303 8.86075 26.0303C8.32887 26.0303 7.8315 26.174 7.40313 26.427L5.49125 23.1984C4.16875 21.0996 2.61625 18.9146 2.61625 18.9146L9.17125 10.9509C9.17125 10.9509 11.5 12.3884 13.4263 13.4809C14.375 14.0271 16.0138 14.7459 17.25 15.3209C15.295 16.7871 13.6562 18.1959 14.145 19.1734C14.9989 19.7886 16.0655 20.1595 17.2184 20.1595C18.2994 20.1595 19.3056 19.8346 20.1451 19.2769C21.2175 18.5553 22.5601 18.1182 24.0063 18.1182C25.0039 18.1182 25.9526 18.3253 26.8123 18.7019C28.405 19.7771 31.3375 22.4221 34.0112 24.0896C37.375 26.5334 38.0363 28.1146 37.2313 28.9196V28.9225Z" fill="black"/>
</svg>
