<svg width="50" height="50" viewBox="0 0 50 50" fill="none" xmlns="http://www.w3.org/2000/svg">
<path opacity="0.5" fill-rule="evenodd" clip-rule="evenodd" d="M29.7475 4.48379C28.976 4.16663 27.9979 4.16663 26.0417 4.16663C24.0854 4.16663 23.1073 4.16663 22.3358 4.48379C21.3071 4.90669 20.4898 5.71783 20.0637 6.73877C19.8691 7.20483 19.793 7.74683 19.7632 8.53744C19.7195 9.69929 19.1191 10.7747 18.1045 11.3561C17.09 11.9374 15.8513 11.9157 14.8156 11.3724C14.1108 11.0027 13.5998 10.7971 13.0958 10.7313C11.9918 10.587 10.8754 10.8839 9.992 11.5566C9.32945 12.0612 8.84039 12.9018 7.86229 14.5831C6.88418 16.2645 6.39514 17.1051 6.28614 17.9269C6.14079 19.0225 6.43995 20.1305 7.11781 21.0072C7.4272 21.4075 7.86202 21.7437 8.53687 22.1645C9.52897 22.7833 10.1673 23.8372 10.1673 25C10.1672 26.1627 9.52887 27.2164 8.53687 27.835C7.86191 28.256 7.42702 28.5925 7.1176 28.9927C6.43975 29.8693 6.1406 30.9773 6.28593 32.0729C6.39493 32.8945 6.88399 33.7354 7.86208 35.4166C8.84018 37.0979 9.32925 37.9387 9.99179 38.4431C10.8752 39.1158 11.9916 39.4127 13.0956 39.2685C13.5995 39.2027 14.1105 38.997 14.8153 38.6275C15.8511 38.0841 17.0898 38.0625 18.1044 38.6437C19.119 39.2252 19.7194 40.3006 19.7632 41.4627C19.793 42.2531 19.8691 42.7952 20.0637 43.2612C20.4898 44.282 21.3071 45.0933 22.3358 45.5162C23.1073 45.8333 24.0854 45.8333 26.0417 45.8333C27.9979 45.8333 28.976 45.8333 29.7475 45.5162C30.7762 45.0933 31.5935 44.282 32.0196 43.2612C32.2142 42.7952 32.2904 42.2531 32.3202 41.4625C32.364 40.3006 32.9642 39.2252 33.9787 38.6437C34.9933 38.0622 36.2321 38.0841 37.2679 38.6275C37.9727 38.997 38.4835 39.2025 38.9875 39.2683C40.0915 39.4127 41.2079 39.1158 42.0912 38.4431C42.754 37.9385 43.2429 37.0979 44.221 35.4164C45.1992 33.7352 45.6881 32.8945 45.7973 32.0729C45.9425 30.9773 45.6433 29.8691 44.9656 28.9925C44.656 28.5923 44.2212 28.2558 43.5462 27.835C42.5544 27.2164 41.916 26.1625 41.916 24.9998C41.916 23.837 42.5544 22.7835 43.5462 22.165C44.2215 21.7439 44.6562 21.4077 44.9658 21.0072C45.6435 20.1306 45.9427 19.0226 45.7975 17.927C45.6883 17.1053 45.1994 16.2646 44.2212 14.5833C43.2431 12.902 42.7542 12.0613 42.0915 11.5568C41.2081 10.884 40.0917 10.5871 38.9877 10.7314C38.4837 10.7972 37.9727 11.0028 37.2681 11.3725C36.2323 11.9158 34.9935 11.9375 33.979 11.3561C32.9644 10.7748 32.364 9.69925 32.32 8.53733C32.2902 7.74679 32.2142 7.20481 32.0196 6.73877C31.5935 5.71783 30.7762 4.90669 29.7475 4.48379Z" fill="white"/>
<path d="M32.339 25C32.339 28.4519 29.5196 31.25 26.0415 31.25C22.5633 31.25 19.7439 28.4519 19.7439 25C19.7439 21.5481 22.5633 18.75 26.0415 18.75C29.5196 18.75 32.339 21.5481 32.339 25Z" fill="white"/>
</svg>
