<svg width="56" height="56" viewBox="0 0 56 56" fill="none" xmlns="http://www.w3.org/2000/svg">
<path opacity="0.5" d="M24.643 5.25001C24.3782 5.24996 24.1722 5.24994 23.9771 5.26174C21.5027 5.41161 19.336 6.97329 18.4114 9.27326C18.3369 9.45862 18.2706 9.65681 18.1821 9.92253C17.9876 10.446 17.5413 11.0413 16.9163 11.517C16.8468 11.57 16.7769 11.62 16.707 11.6671L21.2383 11.6667C21.3057 11.5277 21.3678 11.3864 21.4241 11.243L21.4277 11.2348L21.4375 11.2117L21.4489 11.1834L21.4595 11.1555L21.468 11.1323L21.4722 11.1206L21.4821 11.092L21.491 11.0657L21.4959 11.0511L21.5023 11.0316L21.5075 11.0152L21.5117 11.0017C21.6023 10.7304 21.6319 10.6457 21.6588 10.5788C22.0791 9.53333 23.0639 8.82346 24.1887 8.75535C24.2639 8.7508 24.3563 8.75001 24.6906 8.75001H31.3122C31.6468 8.75001 31.7389 8.7508 31.8143 8.75535C32.939 8.82346 33.9239 9.53333 34.3441 10.5788C34.3707 10.6448 34.3987 10.7263 34.4906 11.0016L34.4948 11.015L34.5 11.0315L34.5065 11.051L34.5112 11.0656L34.5203 11.0919L34.5301 11.1204L34.5343 11.1321L34.5427 11.1552L34.5534 11.183L34.5646 11.211L34.5742 11.2338L34.5779 11.2423C34.6344 11.3859 34.6964 11.5275 34.7639 11.6667L39.295 11.6671C39.2252 11.62 39.1554 11.57 39.0859 11.5171C38.461 11.0415 38.0149 10.4462 37.8203 9.9226L37.8133 9.90144C37.7295 9.65023 37.6644 9.45453 37.5914 9.27328C36.6669 6.97329 34.5002 5.41161 32.0257 5.26174C31.8309 5.24994 31.6246 5.24996 31.3598 5.25001H24.643Z" fill="white"/>
<path fill-rule="evenodd" clip-rule="evenodd" d="M40.1154 11.6667H15.8845C11.9473 11.6667 9.97868 11.6667 8.47624 12.4361C7.16897 13.1055 6.10537 14.1691 5.43598 15.4763C4.66666 16.9788 4.66666 18.9474 4.66666 22.8846C4.66666 23.8855 4.66666 24.386 4.83783 24.8078C4.98733 25.1763 5.2285 25.5006 5.53846 25.7496C5.89338 26.0347 6.37274 26.1787 7.33146 26.4661L19.8333 30.2167V33.0464C19.8333 34.8328 20.9052 36.4796 22.6026 37.1691L23.9094 37.7002C26.5344 38.7668 29.4656 38.7668 32.0906 37.7002L33.3975 37.1691C35.0947 36.4796 36.1667 34.8328 36.1667 33.0464V30.2167L48.6684 26.4661C49.6272 26.1787 50.1067 26.0347 50.4616 25.7496C50.7715 25.5006 51.0127 25.1763 51.1621 24.8078C51.3333 24.386 51.3333 23.8855 51.3333 22.8846C51.3333 18.9474 51.3333 16.9788 50.564 15.4763C49.8946 14.1691 48.8311 13.1055 47.5237 12.4361C46.0213 11.6667 44.0526 11.6667 40.1154 11.6667ZM31.7333 28.0001H24.2667C23.7512 28.0001 23.3333 28.4245 23.3333 28.9481V33.0464C23.3333 33.4339 23.5657 33.7825 23.9199 33.9267L25.2271 34.4576C27.0072 35.1809 28.9928 35.1809 30.7732 34.4576L32.0801 33.9267C32.4343 33.7825 32.6667 33.4339 32.6667 33.0464V28.9481C32.6667 28.4245 32.2488 28.0001 31.7333 28.0001Z" fill="white"/>
<path opacity="0.5" d="M7 26.3662C7.10374 26.3977 7.21401 26.4308 7.33147 26.4661L19.8333 30.2164V33.0463C19.8333 34.8327 20.9052 36.4793 22.6026 37.1691L23.9094 37.6999C26.5344 38.7665 29.4656 38.7665 32.0906 37.6999L33.3975 37.1691C35.0947 36.4793 36.1667 34.8327 36.1667 33.0463V30.2164L48.6684 26.4661C48.786 26.4308 48.8962 26.3977 49 26.3662V28.6998C48.9979 37.2755 48.9186 45.9384 45.9247 48.5996C42.8491 51.3333 37.8994 51.3333 28 51.3333C18.1004 51.3333 13.1507 51.3333 10.0753 48.5996C7.08141 45.9384 7.0021 37.2755 7 28.6998V26.3662Z" fill="white"/>
</svg>
